<?xml version="1.0" encoding="utf-8"?>
<!-- Generator: Adobe Illustrator 19.0.0, SVG Export Plug-In . SVG Version: 6.00 Build 0)  -->
<svg version="1.1" id="Layer_1" xmlns="http://www.w3.org/2000/svg" xmlns:xlink="http://www.w3.org/1999/xlink" x="0px" y="0px"
	 viewBox="0 0 500 500" style="enable-background:new 0 0 500 500;" xml:space="preserve">
<style type="text/css">
	.st0{fill:#FFFFFF;}
	.st1{fill:#221E1F;}
	.st2{fill:#F8A31F;}
	.st3{fill:#42291B;}
	.st4{fill:#604B44;}
</style>
<g id="XMLID_1_">
	<path id="XMLID_3_" class="st0" d="M120.4,180.9c0.1,0,8.1,2,22.3,8.9c12.8,6.2,21,12.8,21.1,12.8l1.9-2.3
		c-0.3-0.3-8.6-6.8-21.6-13.2c-14.5-7.1-22.5-9.1-22.9-9.1L120.4,180.9"/>
	<path id="XMLID_4_" class="st0" d="M122.3,216.7c0.6,0.1,14.8,1.9,21.5,1.7l19.8-1.4l-0.3-3l-19.6,1.4c-6.5,0.1-20.9-1.7-21.1-1.7
		L122.3,216.7"/>
	<path id="XMLID_5_" class="st0" d="M400.8,198.7c-8.1,2.5-24.3,4.6-24.4,4.6l0.4,3c0.7-0.1,16.5-2.1,24.9-4.7
		c9.9-3.1,16.7-8.5,17-8.8l-1.9-2.3C416.8,190.5,410.2,195.8,400.8,198.7"/>
	<path id="XMLID_6_" class="st0" d="M376.8,227.4c0.4,0.2,9.9,4.4,20,5.8c9.9,1.3,16.6,1,16.9,1l-0.2-3c-0.1,0-6.7,0.3-16.3-1
		c-9.6-1.3-19-5.5-19.1-5.5L376.8,227.4"/>
	<path id="XMLID_7_" class="st0" d="M396.1,213.1c-2.4-13.5-12.5-22.3-20.6-27.3c-3.2-2-6.1-3.4-8.2-4.4c-0.6-6.2-2.7-19.4-11-34.8
		c-5.9-11-23.4-25.9-28.6-30.2c-0.7-3.3-10.2-48.5-10.2-48.5l-0.4,0.3c0-0.1-0.1-0.7-0.1-0.7s-31.3,28.2-33.2,29.8
		c-2.1,0.5-12.6,2.8-14,3.1c-5.9-0.7-11.3-1-16.5-0.9c-13.8,0.2-27.1,3.2-32.4,4.6c-3.6-2.5-42.6-29.7-42.6-29.7l-0.4-0.3l-9-6.4
		c0,0,6,73,6.3,76.8c-5.5,7.1-22.7,31.8-22.7,59.7c0,10,2.2,20.4,8,30.5c7.7,13.5,18.4,24.8,31.8,33.9c-7.4,2.3-13.6,7.4-20.1,12.8
		l-6.6,5.4c-1.5,1.2-3.4,2.3-5.2,3.5c-5.8,3.6-13.5,8.4-13.5,18.1c0,1.6,0.2,3.4,0.7,5.3c0.6,2.3,1.8,6.9,3.9,12.5
		c-5.6-2.2-10.4-5.3-14.5-9.3c-7-6.8-12.1-15.4-16.6-23c-3.7-6.2-6.8-11.5-10.5-15.2c-6.4-6.3-12.6-5.2-16.7-3.1
		c-7.2,3.6-11.7,13.5-11.7,25.7c0,0.9,0,1.7,0.1,2.6c0.9,17.8,11.8,40.4,39.4,50.7c7,2.6,13.7,4.1,20.1,5.1c-3.2,1.1-6,1.9-7.8,2.4
		c-4-2-12.4-5-21.6,0.5c-7.9,4.7-8.6,15.9-2.2,30.8c7.8,17.9,27,42.3,43.6,37.6c7.5-2.1,12.4-6,14.5-11.5c0.7-2,1-4,1-6
		c0-6.9-3.6-13.7-6.8-18.9c22.8-6.6,45.3-19.6,53.5-24.7c5.7,5.6,11.4,11.3,16.7,16.9c16.6,17.7,41,38.9,42,39.8l1.1,1l1.5,0.2
		c1,0.1,24.3,3.7,44.2,4.5c21,0.8,29.8-1.5,31.4-8.4c1.9-8.2,0.8-15.2-3.5-20.8c-6-7.9-17.6-12.2-34.7-12.9
		c-7.3-0.3-13.6,0.2-16.9,0.5c-9.8-9-17.4-16.1-21.5-19.9c-4.6-4.4-12-11.9-21.8-22.3c3.5-3.3,7.2-7.7,11.9-14.2
		c0.9-1.3,1.9-2.8,3-4.6c2.2,1.7,5.8,4.7,11,10.4c6.5,7,13.1,10.3,20.3,10.1c6-0.1,11.5-2.6,16.9-5l0.5-0.2
		c6.7-3.1,28.6-14.1,31.1-28.2c0.6-3.6,0.3-9.1-5.1-14.4c-4.2-4.1-8.4-6.2-12.8-6.6c-7-0.6-12.8,3.5-17.9,7.1
		c-3.3,2.4-6.4,4.6-9.6,5.6c-1,0.3-2,0.5-2.8,0.5c-4.1,0-7-3.7-11.1-9.3c-1.5-2-3-4.2-4.6-5.9c-0.9-0.9-1.8-1.8-2.6-2.6
		c9.6-0.3,19.3-1.2,29-2.7c44.5-7.2,65.7-25.4,75.6-39.4c6.7-9.5,10.3-19.9,10.3-29.6C396.7,217.3,396.5,215.2,396.1,213.1"/>
	<path id="XMLID_8_" class="st1" d="M396.1,213.1c-2.4-13.5-12.5-22.3-20.6-27.3c-3.2-2-6.1-3.4-8.2-4.4c-0.6-6.2-2.7-19.4-11-34.8
		c-5.9-11-23.4-25.9-28.6-30.2c-0.7-3.3-10.2-48.5-10.2-48.5l-0.4,0.3c0-0.1-0.1-0.7-0.1-0.7s-31.3,28.2-33.2,29.8
		c-2.1,0.5-12.6,2.8-14,3.1c-5.9-0.7-11.3-1-16.5-0.9c-13.8,0.2-27.1,3.2-32.4,4.6c-3.6-2.5-42.6-29.7-42.6-29.7l-0.4-0.3l-9-6.4
		c0,0,6,73,6.3,76.8c-5.5,7.1-22.7,31.8-22.7,59.7c0,10,2.2,20.4,8,30.5c7.7,13.5,18.4,24.8,31.8,33.9c-7.4,2.3-13.6,7.4-20.1,12.8
		l-6.6,5.4c-1.5,1.2-3.4,2.3-5.2,3.5c-5.8,3.6-13.5,8.4-13.5,18.1c0,1.6,0.2,3.4,0.7,5.3c0.6,2.3,1.8,6.9,3.9,12.5
		c-5.6-2.2-10.4-5.3-14.5-9.3c-7-6.8-12.1-15.4-16.6-23c-3.7-6.2-6.8-11.5-10.5-15.2c-6.4-6.3-12.6-5.2-16.7-3.1
		c-7.2,3.6-11.7,13.5-11.7,25.7c0,0.9,0,1.7,0.1,2.6c0.9,17.8,11.8,40.4,39.4,50.7c7,2.6,13.7,4.1,20.1,5.1c-3.2,1.1-6,1.9-7.8,2.4
		c-4-2-12.4-5-21.6,0.5c-7.9,4.7-8.6,15.9-2.2,30.8c7.8,17.9,27,42.3,43.6,37.6c7.5-2.1,12.4-6,14.5-11.5c0.7-2,1-4,1-6
		c0-6.9-3.6-13.7-6.8-18.9c22.8-6.6,45.3-19.6,53.5-24.7c5.7,5.6,11.4,11.3,16.7,16.9c16.6,17.7,41,38.9,42,39.8l1.1,1l1.5,0.2
		c1,0.1,24.3,3.7,44.2,4.5c21,0.8,29.8-1.5,31.4-8.4c1.9-8.2,0.8-15.2-3.5-20.8c-6-7.9-17.6-12.2-34.7-12.9
		c-7.3-0.3-13.6,0.2-16.9,0.5c-9.8-9-17.4-16.1-21.5-19.9c-4.6-4.4-12-11.9-21.8-22.3c3.5-3.3,7.2-7.7,11.9-14.2
		c0.9-1.3,1.9-2.8,3-4.6c2.2,1.7,5.8,4.7,11,10.4c6.5,7,13.1,10.3,20.3,10.1c6-0.1,11.5-2.6,16.9-5l0.5-0.2
		c6.7-3.1,28.6-14.1,31.1-28.2c0.6-3.6,0.3-9.1-5.1-14.4c-4.2-4.1-8.4-6.2-12.8-6.6c-7-0.6-12.8,3.5-17.9,7.1
		c-3.3,2.4-6.4,4.6-9.6,5.6c-1,0.3-2,0.5-2.8,0.5c-4.1,0-7-3.7-11.1-9.3c-1.5-2-3-4.2-4.6-5.9c-0.9-0.9-1.8-1.8-2.6-2.6
		c9.6-0.3,19.3-1.2,29-2.7c44.5-7.2,65.7-25.4,75.6-39.4c6.7-9.5,10.3-19.9,10.3-29.6C396.7,217.3,396.5,215.2,396.1,213.1"/>
	<path id="XMLID_9_" class="st2" d="M310,283.4c67.4-10.9,84.8-48.9,81.1-69.4c-3.7-20.5-28.7-29-28.7-29s0.3-16-10.6-36
		c-6.4-11.9-28.8-29.8-28.8-29.8l-8.7-41.6l-27.5,24.8l-15.4,3.5c-5.5-0.7-11.6-1.2-18-1.1c-16.9,0.2-33.5,5-33.5,5l-44.6-31
		l5.5,67.8c2.4-2.7-39.3,44.3-15.5,86c11.1,19.6,28.9,34.3,51.5,43.4l-1.7,1.4c-1.2-0.9-2.8-1.8-4.8-2.6c-17.8-7.1-27,4.7-41.7,16.2
		c-8,6.1-19.3,8.9-16.2,21.6c1.2,5,3.9,13.4,8.2,21.3l-0.5,0.3c-8.6-1.7-18.6-5.4-26.9-13.4c-18.8-18.2-24-47.3-38-40.4
		c-14,7-15.5,53.7,27.3,69.6c14.7,5.5,28.3,6,39.4,6.1l0-0.4l9.2-4.3c-2.4,1.5-6,3.5-11.1,6l-12.5,4.8l-0.4,0.9
		c-7.5,2.8-14.7,4.7-14.7,4.7s-8.6-6.4-18.2-0.6c-15.7,9.4,18,64.5,37.3,59c23.3-6.6,5.3-28.9,2-34.6c29.8-6.8,62.2-27.8,62.2-27.8
		l-0.5,0.2l0.8-0.4c5.8,5.5,12.6,12.3,19.8,19.9c16.6,17.6,41.6,39.4,41.6,39.4s67.4,10.3,69.8,0c8.1-34.7-51.9-26.6-51.9-26.6
		s-15.9-14.6-23.3-21.6c-6.5-6.2-17.2-17.3-25.7-26.3l0.7-0.8c4.3-3.1,8.7-8.2,14.4-16.1c1.9-2.6,3.9-6.1,5.6-9.4l0,1
		c0,0,4.4,0.8,16.4,13.7c12.1,13,21.3,8.5,31.7,3.7c10.4-4.8,38.4-20.5,24.4-34.2c-14-13.7-22.3,3.3-35,7.3
		c-12.7,4-17.7-9.5-23.9-16.2c-5.3-5.7-10.9-9.3-12.4-10.2l0.1-1.1C281.5,286.6,295.4,285.8,310,283.4"/>
	<path id="XMLID_10_" class="st0" d="M96.7,280.3c-8.6,1.6-12.5,17.7-9.3,30.6c3.2,12.8,7.1,21.5,13.3,26.2c6.2,4.8-1.1-10.9,6.7-17
		c7.8-6.1,21-2.6,21-2.6s-10.1-14.9-15.8-23.9C106.8,284.6,104.9,278.8,96.7,280.3"/>
	<path id="XMLID_11_" class="st0" d="M264.2,326.8c0,0,9.2-9.2-8.1-19.3c-17.3-10.1-25.7-1-31.4,4.3c-9.8,9.1,10.6,26.2,10.6,26.2
		l11.4,9.3c0,0,6.8-5.2,9.7-9.9C259.2,332.8,264.2,326.8,264.2,326.8"/>
	<path id="XMLID_12_" class="st0" d="M233.7,201.4c0,0-30.2,2.2-32,20.6c-4.4,46,71.7,64.4,71.7,64.4s35.9,2.7,69-13.1
		c33.2-15.8,52.6-35.5,48.1-58.7c-4.4-23.2-32.7-29-32.7-29l-7.1-9.1l-32.9,8.3c0,0-0.4,12.2-16.1,15c-15.7,2.8-39.7-9.6-39.7-9.6
		L233.7,201.4"/>
	<path id="XMLID_13_" class="st3" d="M286.6,102.4l27-24.3l8.6,41.1l0.1,0.1c0,0,0.3,0.3,1,0.8c2.2,1.8,7.7,6.4,13.4,11.9
		c5.7,5.5,11.5,11.8,14.3,17c10.3,19,10.5,34.3,10.5,35.7c0,0.1,0,0.1,0,0.1l0,0.3l0.3,0.1c0,0,0.1,0,0.3,0.1
		c1.4,0.5,7.6,2.9,13.8,7.5c6.3,4.7,12.6,11.6,14.3,21.1c0.3,1.7,0.5,3.5,0.5,5.4c0,10.5-4.9,23.9-17.5,35.9
		c-12.6,12-32.9,22.7-63.8,27.7c-12.1,2-23.8,2.9-34.9,2.9c-50.6,0-89.9-19.6-109.3-53.7c-5.3-9.2-7.3-18.7-7.3-27.9
		c0-15.4,5.7-29.8,11.4-40.4c2.9-5.3,5.7-9.6,7.9-12.7c1.1-1.5,2-2.7,2.6-3.5c0.3-0.4,0.6-0.7,0.7-0.9c0.1-0.1,0.1-0.2,0.2-0.2
		l0.1-0.1l0,0l0,0l0,0l0,0c0,0,0,0,0-0.2c0-0.1-0.1-0.3-0.2-0.3c-0.1-0.1-0.2-0.1-0.2-0.1c-0.1,0-0.1,0-0.2,0l-0.1,0l0,0
		c0,0-0.1,0.1-0.1,0.1l0.3,0.3l0.4,0l-5.5-66.9l51.8,36.5l0.4-0.6l-53.1-37.5l5.7,69.5l0.6-0.7l0.1-0.1l0,0l-0.1-0.1l0.1,0.1l0,0
		l-0.1-0.1l0.1,0.1l-0.3-0.3l0.2,0.3l0,0l-0.3-0.3l0.2,0.3l-0.2-0.3l0.2,0.3l0,0l-0.2-0.3l0.2,0.3l-0.2-0.3l0.2,0.3l0.1,0l-0.2-0.3
		l0.2,0.3l-0.2-0.3v0.4c0.1,0,0.1,0,0.2,0l-0.2-0.3v0.4v-0.4l-0.2,0.3c0.1,0.1,0.2,0.1,0.2,0.1v-0.4l-0.2,0.3l0.2-0.3h-0.4
		c0,0.1,0.1,0.3,0.2,0.3l0.2-0.3h-0.4h0.4l-0.4-0.2c0,0,0,0,0,0.2h0.4l-0.4-0.2l0.3,0.2l-0.3-0.2l0,0.1l0.3,0.2l-0.3-0.2l0,0l0,0
		l0,0l0,0l0,0c-0.2,0.3-1.8,2.1-3.9,5.2c-6.6,9.4-19.1,30.1-19.1,53c0,9.3,2.1,18.9,7.4,28.3c19.6,34.3,59.2,54.1,110,54
		c11.2,0,22.9-1,35.1-2.9c31-5,51.5-15.7,64.2-27.9c12.7-12.2,17.7-25.8,17.7-36.5c0-1.9-0.2-3.8-0.5-5.5
		c-1.9-10.4-9.1-17.8-15.9-22.5c-6.8-4.7-13-6.8-13.1-6.8l-0.1,0.4l0.4,0c0,0,0,0,0-0.1c0-1.5-0.3-17-10.6-36.1
		c-3.3-6-10.5-13.5-16.9-19.5c-6.4-6-12-10.4-12-10.4l-0.2,0.3l0.4-0.1l-8.8-42.3l-28,25.2L286.6,102.4L286.6,102.4z"/>
	<path id="XMLID_14_" class="st3" d="M290.6,108.9c0,0-17.5-4.9-36.5-4.9c-0.4,0-0.8,0-1.2,0c-17,0.2-33.5,5-33.6,5l0.2,0.7
		c0,0,0.3-0.1,0.7-0.2c3.4-0.9,17.9-4.6,32.6-4.8c0.4,0,0.8,0,1.2,0c9.4,0,18.5,1.2,25.2,2.5c3.4,0.6,6.1,1.2,8.1,1.7
		c1,0.2,1.7,0.4,2.2,0.6c0.5,0.1,0.8,0.2,0.8,0.2L290.6,108.9L290.6,108.9z"/>
	<path id="XMLID_15_" class="st0" d="M257.5,157.4c9.9,16.4,8.1,35.5-4,42.8c-12,7.3-29.8-0.1-39.7-16.5c-9.9-16.4-8.1-35.5,4-42.8
		C229.9,133.6,247.7,141,257.5,157.4"/>
	<path id="XMLID_16_" class="st3" d="M257.5,157.4l-1.3,0.8c4.1,6.9,6.1,14.3,6.1,20.9c0,4.3-0.8,8.3-2.5,11.7c-1.6,3.4-4,6.1-7.1,8
		l0,0c-2.9,1.7-6.1,2.6-9.6,2.6c-4.9,0-10.1-1.7-15-4.9c-4.9-3.2-9.5-7.8-13-13.7l0,0C211,176,209,168.6,209,162
		c0-4.3,0.8-8.3,2.5-11.7c1.6-3.4,4-6.1,7.1-8c2.9-1.7,6.1-2.6,9.6-2.6c4.9,0,10.1,1.7,15,4.9c4.9,3.2,9.5,7.8,13,13.7L257.5,157.4
		l1.3-0.8c-3.8-6.2-8.6-11.2-14-14.7c-5.3-3.4-11.1-5.4-16.7-5.4c-3.9,0-7.8,1-11.2,3c-3.7,2.2-6.5,5.5-8.3,9.3
		c-1.9,3.9-2.8,8.3-2.8,13.1c0,7.3,2.2,15.2,6.6,22.5l0,0c3.8,6.2,8.6,11.2,14,14.7c5.3,3.4,11.1,5.4,16.7,5.4c3.9,0,7.8-1,11.2-3
		l0,0c3.7-2.2,6.5-5.5,8.3-9.3c1.9-3.9,2.8-8.3,2.8-13.1c0-7.3-2.2-15.2-6.6-22.5L257.5,157.4z"/>
	<path id="XMLID_17_" class="st0" d="M343.5,148.9c9.9,16.3,9.6,34.6-0.6,40.8c-10.2,6.2-26.4-2.1-36.3-18.5
		c-9.9-16.4-9.6-34.6,0.6-40.8C317.4,124.2,333.6,132.5,343.5,148.9"/>
	<path id="XMLID_18_" class="st3" d="M343.5,148.9l-1.3,0.8c4.7,7.8,7,16,7,22.9c0,3.6-0.6,6.9-1.8,9.6c-1.2,2.7-2.9,4.8-5.2,6.2
		c-2,1.2-4.3,1.8-6.8,1.8c-4.3,0-9.3-1.8-14.1-5.2c-4.8-3.4-9.5-8.4-13.2-14.6c-4.7-7.8-7-16-7-22.9c0-3.6,0.6-6.9,1.8-9.5
		c1.2-2.7,3-4.8,5.3-6.2c2-1.2,4.3-1.8,6.8-1.8c4.3,0,9.3,1.8,14.2,5.2c4.8,3.4,9.5,8.4,13.2,14.6L343.5,148.9l-1.1-1.1l0,0
		l-0.9,0.9l0.6,1L343.5,148.9l1.1,1.1l0,0l0.9-0.9l-0.6-1c-3.9-6.5-8.9-11.8-14.1-15.5c-5.2-3.7-10.8-5.8-16-5.8
		c-3,0-5.9,0.7-8.4,2.2c-2.9,1.8-5.1,4.4-6.5,7.6c-1.4,3.2-2.1,6.8-2.1,10.8c0,7.6,2.5,16.3,7.5,24.5c3.9,6.5,8.9,11.8,14.1,15.5
		c5.2,3.7,10.7,5.8,15.9,5.8c3,0,5.9-0.7,8.4-2.3c2.9-1.7,5.1-4.4,6.5-7.6c1.4-3.2,2.1-6.9,2.1-10.8c0-7.6-2.5-16.3-7.4-24.5
		L343.5,148.9l1.1,1.1L343.5,148.9z"/>
	<path id="XMLID_19_" class="st1" d="M246.9,180.4c-0.1,3-2.4,5.3-5.1,5.2c-2.7-0.1-4.9-2.6-4.7-5.6c0.1-3,2.4-5.3,5.1-5.2
		C244.9,175,247,177.5,246.9,180.4"/>
	<path id="XMLID_20_" class="st1" d="M337.7,172.1c-0.1,3-2.4,5.3-5.1,5.2c-2.7-0.1-4.9-2.6-4.8-5.5c0.1-3,2.4-5.3,5.2-5.2
		C335.7,166.7,337.8,169.2,337.7,172.1"/>
	<path id="XMLID_21_" class="st4" d="M298.8,192.1c6.6,0.2,16.3-0.4,16.7,2.6c0.4,3.1-6.6,14.8-11.2,15.1
		c-4.6,0.3-21.6-9.2-21.6-14.8C282.6,189.5,292.7,191.9,298.8,192.1"/>
	<path id="XMLID_22_" class="st3" d="M298.8,192.1l0,0.3c3.3,0.1,7.4,0,10.7,0.3c1.6,0.1,3.1,0.3,4.1,0.7c0.5,0.2,0.9,0.4,1.2,0.6
		c0.3,0.2,0.4,0.5,0.5,0.8l0,0c0,0.1,0,0.1,0,0.2c0,0.8-0.4,2.1-1.1,3.6c-1,2.3-2.7,5-4.6,7.1c-0.9,1.1-1.9,2-2.8,2.7
		c-0.9,0.7-1.8,1.1-2.5,1.1l0,0c-0.1,0-0.1,0-0.2,0c-1.1,0-3.1-0.6-5.3-1.5c-3.3-1.4-7.3-3.7-10.4-6.1c-1.6-1.2-2.9-2.5-3.9-3.6
		c-1-1.2-1.5-2.3-1.5-3.2l0,0c0-0.7,0.2-1.2,0.4-1.6c0.4-0.6,1.1-1.1,2.1-1.3c1-0.3,2.1-0.4,3.4-0.4c3.1,0,6.9,0.6,9.8,0.7l0.1,0
		l0.1-0.1L298.8,192.1l0,0.3L298.8,192.1l-0.2-0.2h0L298.8,192.1l0-0.3c-2.9-0.1-6.6-0.7-9.8-0.7c-1.8,0-3.4,0.2-4.6,0.8
		c-0.6,0.3-1.1,0.7-1.5,1.2c-0.4,0.5-0.5,1.2-0.5,2l0,0c0,1.5,1.1,3.2,2.8,4.8c2.5,2.5,6.2,5.1,9.9,7c1.8,1,3.6,1.8,5.2,2.4
		c1.6,0.6,2.9,0.9,3.9,0.9c0.1,0,0.2,0,0.3,0l0,0l0,0c1.2-0.1,2.5-0.9,3.8-2.1c1.9-1.7,3.8-4.3,5.3-6.8c0.7-1.2,1.3-2.5,1.7-3.5
		c0.4-1.1,0.7-2,0.7-2.7c0-0.1,0-0.2,0-0.3l0,0c-0.1-0.5-0.3-0.9-0.7-1.2c-0.6-0.5-1.6-0.9-2.8-1.1c-3.6-0.7-9.2-0.5-13.6-0.6
		l-0.1,0l-0.1,0.1L298.8,192.1z"/>
	<path id="XMLID_23_" class="st3" d="M165.7,200.3c-0.1,0-8.4-6.8-21.7-13.2l0,0c-14.6-7.1-22.8-9.1-22.9-9.2l-0.7,3l0,0
		c0.4,0.1,8.3,2.1,22.3,8.9l0,0c6.5,3.1,11.8,6.4,15.4,8.8c1.8,1.2,3.3,2.2,4.2,2.9c0.5,0.4,0.8,0.6,1.1,0.8
		c0.1,0.1,0.2,0.2,0.3,0.2l0.1,0.1l0,0L165.7,200.3L165.7,200.3z"/>
	<path id="XMLID_24_" class="st3" d="M122.3,216.7c0,0,3.4,0.4,7.7,0.9c4.3,0.4,9.5,0.9,13.1,0.9c0.2,0,0.5,0,0.7,0l0,0l0,0
		c3.4-0.1,8.3-0.4,12.4-0.8c4.1-0.3,7.4-0.6,7.4-0.6l-0.3-3.1c0,0-0.2,0-0.6,0.1c-1.3,0.1-4.6,0.4-8.3,0.7
		c-3.7,0.3-7.8,0.6-10.7,0.6h0c-0.2,0-0.4,0-0.6,0c-3.3,0-8.5-0.4-12.7-0.9c-2.1-0.2-4.1-0.4-5.4-0.6c-0.7-0.1-1.3-0.1-1.6-0.2
		c-0.4,0-0.6-0.1-0.6-0.1L122.3,216.7L122.3,216.7z"/>
	<path id="XMLID_25_" class="st3" d="M187.6,316.2c0,0,0.2-0.1,0.4-0.3c2-1.4,10.6-7.5,18.3-12.8c3-2,6.4-4.9,9.2-8.2
		c1.4-1.6,2.6-3.4,3.5-5.2c0.9-1.8,1.5-3.7,1.5-5.7c0-1.1-0.2-2.1-0.6-3.2c-0.6-1.6-1.6-3-3.1-4.3c-1.5-1.3-3.5-2.4-5.9-3.4l0,0
		c-3.9-1.5-7.4-2.2-10.7-2.2c-3.1,0-6,0.6-8.8,1.7c-4.1,1.6-7.9,4.2-11.7,7.2c-3.8,3-7.7,6.4-12,9.8l0,0c-1.7,1.3-3.6,2.5-5.5,3.6
		c-2.8,1.8-5.7,3.5-8,5.9c-1.1,1.2-2.1,2.5-2.8,4.1c-0.7,1.6-1.1,3.3-1.1,5.3c0,1.4,0.2,2.8,0.6,4.4l0,0l0,0
		c1.4,5.6,4.6,15.7,9.9,24.5c2.7,4.4,5.9,8.5,9.8,11.5c1.9,1.5,4,2.8,6.3,3.6c2.3,0.9,4.7,1.4,7.3,1.4c3,0,6.2-0.7,9.6-2.1
		c3.8-1.6,6.5-3.5,8.2-5.7c0.9-1.1,1.5-2.3,2-3.5c0.4-1.2,0.6-2.5,0.6-3.7c0-1.5-0.3-3.1-0.8-4.6c-0.9-2.7-2.3-5.2-4.1-7.7
		c-2.6-3.7-5.9-7.3-8.7-10.3c-1.4-1.5-2.7-2.9-3.8-4.1c-1.1-1.2-1.9-2.2-2.3-2.9l-2.7,1.6c0.5,0.8,1.1,1.6,1.9,2.5
		c1.3,1.6,3.1,3.4,5,5.4c2.8,3,6,6.5,8.3,10c1.2,1.8,2.2,3.5,2.9,5.2c0.7,1.7,1.1,3.3,1.1,4.8c0,0.9-0.1,1.8-0.4,2.7
		c-0.5,1.3-1.3,2.5-2.6,3.8c-1.4,1.2-3.3,2.4-5.9,3.5c-3,1.3-5.8,1.8-8.4,1.8c-2.2,0-4.3-0.4-6.2-1.2c-3.4-1.3-6.5-3.6-9.2-6.6
		c-4.1-4.5-7.4-10.4-9.9-16.1c-2.5-5.7-4.1-11.1-5-14.7l0,0c-0.3-1.3-0.5-2.5-0.5-3.6c0-2.1,0.5-3.7,1.4-5.1c0.7-1.1,1.5-2.1,2.6-3
		c1.6-1.4,3.6-2.7,5.7-4c2.1-1.3,4.4-2.7,6.4-4.3l0,0c5.9-4.6,10.9-9.1,15.7-12.5c2.4-1.7,4.8-3.1,7.3-4c2.4-1,4.9-1.5,7.7-1.5
		c2.9,0,6,0.6,9.6,2l0,0c3,1.2,4.9,2.6,6.1,3.9c0.6,0.7,1,1.4,1.2,2c0.3,0.7,0.4,1.4,0.4,2.1c0,1.3-0.4,2.8-1.1,4.3
		c-1.1,2.3-3,4.6-5.1,6.7c-2.1,2.1-4.5,4-6.6,5.4c-8.9,6.1-18.8,13.2-18.8,13.2L187.6,316.2L187.6,316.2z"/>
	<path id="XMLID_26_" class="st3" d="M267.7,287.3c0,0,0.1,0.1,0.3,0.2c1.3,0.8,7.1,4.4,12.4,10.2c2.7,2.9,5.2,7.1,8.2,10.6
		c1.5,1.8,3.2,3.4,5.1,4.5c1.9,1.2,4,1.9,6.5,1.9c1.4,0,2.9-0.2,4.5-0.8c4.6-1.5,8.7-4.7,12.6-7.4c3.9-2.8,7.7-5.1,11.7-5.1
		c3.1,0,6.5,1.4,10.4,5.2c2.6,2.6,3.7,5.2,3.7,7.8c0,2.7-1.2,5.5-3.2,8.1c-5.9,7.9-18.6,14.9-24.9,17.7c-5.3,2.4-10.3,4.8-15.4,4.8
		c-4.9,0-10-2.1-15.9-8.4c-12.1-13-16.5-13.8-16.6-13.8l-0.1,0.6l0-0.1l0,0.1l0,0l0-0.1l0,0.1c0,0,4.4,0.9,16.3,13.6
		c5.9,6.4,11.3,8.6,16.4,8.6c5.3,0,10.3-2.4,15.7-4.8c4.2-1.9,11.3-5.7,17.4-10.3c3-2.3,5.8-4.9,7.8-7.6c2-2.7,3.3-5.6,3.3-8.5
		c0-2.8-1.2-5.6-3.9-8.3c-3.9-3.8-7.5-5.3-10.8-5.3c-4.3,0-8.2,2.5-12.1,5.2c-3.9,2.8-7.9,5.9-12.4,7.3c-1.6,0.5-3,0.7-4.3,0.7
		c-2.3,0-4.3-0.7-6.1-1.8c-2.7-1.7-5-4.3-7.1-7.1c-2.1-2.8-4-5.7-6.1-7.9c-6.2-6.7-12.8-10.5-12.9-10.5L267.7,287.3L267.7,287.3z"/>
	<path id="XMLID_27_" class="st3" d="M271.4,311.8c0,0-0.1,0.2-0.2,0.6c-0.6,1.3-2,4.5-3.9,8.2c-1.8,3.7-4.1,7.8-6.2,10.7
		c-5.8,8-10.3,13.2-14.6,16.2l0.4,0.6c4.4-3.2,9-8.3,14.8-16.4c2.5-3.4,5-8.3,7-12.4c2-4.1,3.4-7.3,3.4-7.3L271.4,311.8L271.4,311.8
		z"/>
	<path id="XMLID_28_" class="st3" d="M233.3,335c0,0,26.3,28.5,38.3,39.9c7.4,6.9,23.3,21.6,23.3,21.6l0.1,0.1l0.2,0
		c0,0,0.1,0,0.3,0c1.3-0.2,6.8-0.8,13.8-0.8c7.8,0,17.3,0.8,24.9,3.8c3.8,1.5,7.1,3.6,9.4,6.4c2.3,2.8,3.7,6.3,3.7,10.8
		c0,1.8-0.2,3.8-0.7,6c-0.2,0.7-0.7,1.3-1.7,1.9c-1.5,0.8-3.8,1.4-6.7,1.8c-2.9,0.4-6.5,0.5-10.3,0.5c-10.3,0-23-1.1-33.1-2.3
		c-5-0.6-9.4-1.1-12.6-1.6c-1.6-0.2-2.8-0.4-3.7-0.5s-1.3-0.2-1.3-0.2l-0.1,0.4l0.3-0.3c0,0-0.4-0.3-1.1-1c-5-4.4-26-23-40.5-38.4
		c-20.2-21.5-37.2-35.8-37.2-35.8l-0.5,0.6c0,0,0.3,0.2,0.8,0.7c3.5,3,18.7,16.3,36.4,35.1c16.6,17.7,41.6,39.4,41.6,39.4l0.1,0.1
		l0.1,0c0,0,30,4.6,50.7,4.6c5.2,0,9.8-0.3,13.2-1c1.7-0.4,3.1-0.8,4.2-1.4c1.1-0.6,1.8-1.4,2.1-2.4c0.5-2.2,0.8-4.3,0.8-6.2
		c0-4.6-1.5-8.3-3.9-11.3c-3.7-4.4-9.5-7-15.8-8.5c-6.3-1.5-13.2-2-19.1-2c-8.1,0-14.2,0.8-14.2,0.8l0.1,0.4l0.3-0.3
		c0,0-0.2-0.2-0.7-0.6c-3.1-2.9-16.1-14.8-22.6-20.9c-6-5.7-15.6-15.6-23.6-24.2c-4-4.3-7.7-8.2-10.4-11.1c-1.3-1.4-2.4-2.6-3.1-3.4
		c-0.7-0.8-1.2-1.2-1.2-1.2L233.3,335L233.3,335z"/>
	<path id="XMLID_29_" class="st3" d="M152.6,390.3L152.6,390.3c0,0.2,0.1,0.4,0.1,0.6c0.3,0.7,1.1,1.9,2.1,3.4
		c1.5,2.3,3.5,5.4,5.2,8.8c1.6,3.4,2.9,7.1,2.9,10.5c0,2.6-0.7,5-2.5,7.1c-1.8,2.1-4.6,3.9-9,5.1c-0.9,0.2-1.8,0.4-2.7,0.4
		c-3.9,0-8.2-2-12.5-5.4c-6.5-5-12.9-13-17.7-21.4c-4.8-8.3-8-17-8-23.4c0-2,0.3-3.7,0.9-5.2c0.6-1.5,1.6-2.6,3-3.4l0,0
		c2.9-1.8,5.8-2.4,8.3-2.4c2.8,0,5.2,0.7,6.9,1.5c0.9,0.4,1.5,0.7,2,1c0.2,0.1,0.4,0.3,0.5,0.3c0.1,0,0.1,0.1,0.1,0.1l0,0l0.1,0.1
		l0.1,0c0,0,12.6-3.4,21.8-7.6c15.6-7.2,21.1-11.6,21.1-11.6l-0.4-0.5l-0.1,0c-0.6,0.5-6.3,4.8-21,11.5c-4.6,2.1-10,4-14.3,5.4
		c-2.1,0.7-4,1.2-5.3,1.6c-0.7,0.2-1.2,0.3-1.5,0.4s-0.6,0.2-0.6,0.2l0.1,0.3l0.2-0.2c0,0-4.2-3.1-9.9-3.1c-2.6,0-5.6,0.6-8.6,2.5
		l0,0c-1.5,0.9-2.5,2.2-3.2,3.7c-0.7,1.6-1,3.4-1,5.4c0,4.4,1.4,9.7,3.8,15.3c3.6,8.4,9.3,17.2,15.6,24c6.3,6.8,13.3,11.5,19.4,11.5
		c1,0,2-0.1,2.9-0.4c4.5-1.3,7.5-3.1,9.3-5.3c1.9-2.2,2.6-4.8,2.6-7.5c0-5.1-2.6-10.5-5.2-14.9c-1.3-2.2-2.6-4.1-3.5-5.6
		c-0.5-0.7-0.9-1.4-1.2-1.8c-0.1-0.2-0.2-0.4-0.3-0.6c-0.1-0.2-0.1-0.3-0.1-0.3v0L152.6,390.3L152.6,390.3z"/>
	<path id="XMLID_30_" class="st3" d="M215.4,363.4c0,0-0.1,0.1-0.4,0.3c-4.2,2.7-38.5,24-67.7,28.7l0.1,0.6
		c15.7-2.5,32.7-9.8,45.9-16.4c13.2-6.6,22.4-12.7,22.4-12.7L215.4,363.4L215.4,363.4z"/>
	<path id="XMLID_31_" class="st3" d="M160.4,333.7c-8.6-1.6-18.7-5.4-27-13.4l0,0c-8.4-8.1-14.1-18.5-19.1-26.8
		c-2.5-4.2-4.8-7.8-7.2-10.5c-2.4-2.6-4.9-4.3-7.9-4.3c-1.3,0-2.7,0.3-4.2,1.1l0,0l0,0c-2.7,1.4-5,4.2-6.5,7.9
		c-1.6,3.7-2.4,8.4-2.4,13.5c0,8.4,2.4,18.1,8.1,27c5.7,8.8,14.8,16.8,28.2,21.8l0,0c14.8,5.5,28.5,6,39.5,6.1l0-0.6
		c-11-0.1-24.6-0.6-39.3-6.1l0,0c-13.3-4.9-22.2-12.8-27.9-21.6c-5.7-8.7-8-18.3-8-26.7c0-5,0.9-9.6,2.4-13.2
		c1.5-3.6,3.7-6.3,6.2-7.6l0,0c1.4-0.7,2.7-1,4-1c2.7,0,5,1.5,7.4,4.1c3.5,3.9,6.9,10.1,11,16.9c4.1,6.8,8.9,14.2,15.3,20.4l0,0
		c8.5,8.2,18.7,11.9,27.3,13.6L160.4,333.7L160.4,333.7z"/>
	<path id="XMLID_32_" class="st3" d="M376.8,206.3c0,0,4.1-0.5,9.3-1.4c2.6-0.4,5.4-0.9,8.2-1.5c2.7-0.6,5.4-1.2,7.5-1.9
		c10.1-3.1,17-8.7,17-8.8l-2-2.4l0,0c-0.1,0.1-6.7,5.3-16,8.2c-2,0.6-4.6,1.2-7.2,1.8c-4,0.8-8.3,1.5-11.6,2c-1.6,0.2-3,0.4-4,0.6
		c-0.5,0.1-0.9,0.1-1.1,0.2c-0.3,0-0.4,0.1-0.4,0.1L376.8,206.3L376.8,206.3z"/>
	<path id="XMLID_33_" class="st3" d="M376.8,227.5c0,0,2.5,1.1,6.2,2.4c3.7,1.3,8.7,2.7,13.8,3.4l0,0l0,0c6.6,0.9,11.8,1,14.6,1
		c1.5,0,2.3,0,2.3,0l-0.2-3.1l0,0c-0.1,0-0.9,0-2.1,0c-2.7,0-7.7-0.1-14.2-1l0,0l0,0c-4.8-0.7-9.7-2.1-13.2-3.3
		c-1.8-0.6-3.3-1.2-4.3-1.6c-0.5-0.2-0.9-0.4-1.2-0.5c-0.1-0.1-0.2-0.1-0.3-0.1l-0.1,0l0,0L376.8,227.5L376.8,227.5z"/>
	<path id="XMLID_34_" class="st3" d="M251.5,216.5L251,218c0,0,9.1,3.1,20,6.6c5.4,1.8,11.3,3.6,16.7,5.3c5.4,1.6,10.2,3.1,13.7,4
		l0,0l0,0c6.9,1.8,16.6,3.6,24.5,5c7.9,1.4,14.1,2.4,14.1,2.4l0.2-1.5l-1.2-1l0,0c-0.3,0.3-6,7-14.9,13.5c-4.5,3.3-9.7,6.5-15.5,8.9
		c-5.8,2.4-12.1,4-18.6,4c-3.9,0-8-0.6-12-1.9c-5.6-1.8-10.1-3.8-13.7-6.1c-5.5-3.4-9-7.2-11.2-11.3c-2.2-4-3.1-8.4-3.1-12.8
		c0-5.4,1.3-10.9,3.1-16.1L251.5,216.5L251,218L251.5,216.5L250,216c-1.8,5.4-3.2,11.2-3.2,17.1c0,3.2,0.4,6.4,1.4,9.6
		c1.5,4.7,4.4,9.3,9,13.3c4.7,4,11.1,7.5,19.7,10.2c4.4,1.4,8.8,2,13,2c7.2,0,14-1.7,20.1-4.3c9.2-3.9,17-9.7,22.6-14.5
		c5.5-4.8,8.8-8.7,8.8-8.7l1.8-2.1l-2.7-0.4c0,0-0.4-0.1-1.1-0.2c-2.5-0.4-8.8-1.4-16-2.8c-7.2-1.3-15.3-2.9-21.2-4.4l0,0
		c-3.4-0.9-8.2-2.3-13.6-3.9c-8-2.5-17.2-5.4-24.3-7.7c-3.6-1.2-6.6-2.2-8.8-2.9c-1.1-0.4-2-0.6-2.5-0.8c-0.6-0.2-0.9-0.3-0.9-0.3
		l-1.5-0.5L250,216L251.5,216.5z"/>
	<polyline id="XMLID_35_" class="st3" points="383.6,265.8 383.6,265.8 383.6,265.8 	"/>
</g>
</svg>
